<svg data-v-423bf9ae="" xmlns="http://www.w3.org/2000/svg" viewBox="0 0 710 90" class="iconLeft"><!----><!----><!----><g data-v-423bf9ae="" id="924da840-a01f-4b08-8604-154e78f1a72e" fill="black" transform="matrix(5.323868912170654,0,0,5.323868912170654,107.23159569224669,0.09316563085396723)"><path d="M3.69 8.81C4.93 9.11 5.76 9.43 6.20 9.79C6.51 10.04 6.66 10.36 6.66 10.76C6.66 11.16 6.58 11.47 6.42 11.70C5.99 12.29 5.25 12.59 4.19 12.59C2.69 12.59 1.86 12.08 1.68 11.07L0.52 11.07C0.85 12.68 2.08 13.48 4.18 13.48C5.12 13.48 5.90 13.27 6.54 12.86C7.29 12.37 7.67 11.65 7.67 10.69C7.67 9.91 7.37 9.31 6.76 8.88C6.32 8.57 5.62 8.29 4.65 8.04C3.68 7.79 3.05 7.58 2.75 7.42C2.11 7.10 1.79 6.65 1.79 6.07C1.79 5.76 1.86 5.50 2.00 5.30C2.37 4.75 3.01 4.48 3.93 4.48C5.23 4.48 5.98 4.89 6.17 5.71L7.23 5.71C6.88 4.33 5.78 3.64 3.93 3.64C3.08 3.64 2.35 3.86 1.72 4.30C1.10 4.75 0.78 5.42 0.78 6.31C0.78 7.53 1.75 8.36 3.69 8.81ZM10.07 13.30L10.07 10.72C10.07 9.87 10.21 9.22 10.51 8.77C10.67 8.52 10.88 8.33 11.14 8.20C11.41 8.06 11.75 7.99 12.17 7.99C12.59 7.99 12.89 8.14 13.07 8.42C13.25 8.71 13.34 9.05 13.34 9.45L13.34 13.30L14.32 13.30L14.32 9.45C14.32 8.74 14.14 8.16 13.76 7.72C13.58 7.50 13.35 7.33 13.08 7.20C12.81 7.08 12.45 7.01 12.01 7.01C11.57 7.01 11.19 7.13 10.85 7.36C10.53 7.57 10.27 7.85 10.07 8.20L10.07 2.80L9.09 2.80L9.09 13.30ZM21.11 10.22C21.11 10.82 20.90 11.34 20.49 11.79C20.07 12.24 19.56 12.46 18.94 12.46C18.33 12.46 17.81 12.24 17.39 11.79C16.98 11.34 16.77 10.82 16.77 10.22C16.77 9.62 16.98 9.10 17.39 8.65C17.81 8.20 18.33 7.98 18.94 7.98C19.56 7.98 20.07 8.20 20.49 8.65C20.90 9.10 21.11 9.62 21.11 10.22ZM22.09 13.30L22.09 7.14L21.11 7.14L21.11 8.19C21.06 8.12 21.00 8.05 20.94 7.98C20.36 7.33 19.64 7.00 18.79 7.00C17.94 7.00 17.22 7.33 16.64 7.98C16.07 8.61 15.79 9.36 15.79 10.22C15.79 11.08 16.07 11.83 16.64 12.46C17.22 13.11 17.94 13.44 18.79 13.44C19.64 13.44 20.36 13.11 20.94 12.46C21.00 12.39 21.06 12.32 21.11 12.25L21.11 13.30ZM28.45 13.30L29.43 13.30L29.43 9.45C29.43 8.74 29.24 8.16 28.87 7.72C28.68 7.50 28.45 7.33 28.18 7.20C27.91 7.08 27.56 7.01 27.12 7.01C26.68 7.01 26.29 7.13 25.96 7.36C25.64 7.57 25.38 7.85 25.17 8.20L25.17 7.14L24.19 7.14L24.19 13.30L25.17 13.30L25.17 10.72C25.17 9.94 25.32 9.32 25.61 8.86C25.78 8.60 25.99 8.39 26.25 8.23C26.51 8.07 26.85 7.99 27.27 7.99C27.69 7.99 27.99 8.14 28.18 8.42C28.36 8.71 28.45 9.05 28.45 9.45ZM37.34 10.08C37.34 9.23 37.01 8.50 36.37 7.88C35.73 7.28 34.98 6.97 34.12 6.97C33.23 6.97 32.47 7.29 31.84 7.92C31.21 8.55 30.90 9.31 30.90 10.19C30.90 11.08 31.21 11.84 31.84 12.46C32.14 12.75 32.48 12.98 32.87 13.15C33.25 13.31 33.72 13.40 34.27 13.40C34.81 13.40 35.35 13.23 35.88 12.89C36.40 12.55 36.80 12.08 37.06 11.49L35.94 11.49C35.72 11.78 35.45 12.01 35.13 12.17C34.81 12.34 34.47 12.42 34.12 12.42C33.59 12.42 33.12 12.25 32.69 11.90C32.27 11.56 32.01 11.13 31.92 10.60L37.34 10.60ZM36.30 9.76L31.93 9.76C31.99 9.50 32.09 9.26 32.23 9.04C32.69 8.31 33.32 7.95 34.12 7.95C34.64 7.95 35.11 8.12 35.51 8.46C35.93 8.80 36.19 9.23 36.30 9.76ZM50.29 14.07L52.50 3.78L51.51 3.78L50.02 10.70L47.17 3.22L44.30 10.70L42.83 3.78L41.82 3.78L44.04 14.07L47.17 5.78ZM54.68 5.01C54.56 4.89 54.42 4.83 54.24 4.83C54.07 4.83 53.92 4.89 53.80 5.01C53.68 5.13 53.62 5.28 53.62 5.45C53.62 5.63 53.68 5.77 53.80 5.89C53.92 6.02 54.07 6.08 54.24 6.08C54.42 6.08 54.56 6.02 54.68 5.89C54.81 5.77 54.87 5.63 54.87 5.45C54.87 5.28 54.81 5.13 54.68 5.01ZM54.74 13.30L54.74 7.14L53.76 7.14L53.76 13.30ZM57.88 13.30L57.88 12.25C57.93 12.32 57.99 12.39 58.05 12.46C58.63 13.11 59.35 13.44 60.20 13.44C61.05 13.44 61.77 13.11 62.35 12.46C62.91 11.83 63.20 11.08 63.20 10.22C63.20 9.36 62.91 8.61 62.35 7.98C61.77 7.33 61.05 7.00 60.20 7.00C59.35 7.00 58.63 7.33 58.05 7.98C57.99 8.05 57.93 8.12 57.88 8.19L57.88 2.80L56.90 2.80L56.90 13.30ZM62.22 10.22C62.22 10.82 62.01 11.34 61.59 11.79C61.18 12.24 60.66 12.46 60.05 12.46C59.43 12.46 58.92 12.24 58.50 11.79C58.08 11.34 57.88 10.82 57.88 10.22C57.88 9.62 58.08 9.10 58.50 8.65C58.92 8.20 59.43 7.98 60.05 7.98C60.66 7.98 61.18 8.20 61.59 8.65C62.01 9.10 62.22 9.62 62.22 10.22ZM65.86 13.30L65.86 12.25C65.91 12.32 65.97 12.39 66.03 12.46C66.61 13.11 67.33 13.44 68.18 13.44C69.03 13.44 69.75 13.11 70.33 12.46C70.89 11.83 71.18 11.08 71.18 10.22C71.18 9.36 70.89 8.61 70.33 7.98C69.75 7.33 69.03 7.00 68.18 7.00C67.33 7.00 66.61 7.33 66.03 7.98C65.97 8.05 65.91 8.12 65.86 8.19L65.86 2.80L64.88 2.80L64.88 13.30ZM70.20 10.22C70.20 10.82 69.99 11.34 69.57 11.79C69.16 12.24 68.64 12.46 68.03 12.46C67.41 12.46 66.90 12.24 66.48 11.79C66.06 11.34 65.86 10.82 65.86 10.22C65.86 9.62 66.06 9.10 66.48 8.65C66.90 8.20 67.41 7.98 68.03 7.98C68.64 7.98 69.16 8.20 69.57 8.65C69.99 9.10 70.20 9.62 70.20 10.22ZM78.88 10.08C78.88 9.23 78.55 8.50 77.90 7.88C77.27 7.28 76.52 6.97 75.66 6.97C74.77 6.97 74.01 7.29 73.38 7.92C72.75 8.55 72.44 9.31 72.44 10.19C72.44 11.08 72.75 11.84 73.38 12.46C73.68 12.75 74.02 12.98 74.40 13.15C74.79 13.31 75.26 13.40 75.80 13.40C76.35 13.40 76.89 13.23 77.41 12.89C77.94 12.55 78.33 12.08 78.60 11.49L77.48 11.49C77.26 11.78 76.99 12.01 76.67 12.17C76.35 12.34 76.01 12.42 75.66 12.42C75.13 12.42 74.65 12.25 74.23 11.90C73.81 11.56 73.55 11.13 73.46 10.60L78.88 10.60ZM77.84 9.76L73.47 9.76C73.53 9.50 73.63 9.26 73.77 9.04C74.23 8.31 74.86 7.95 75.66 7.95C76.18 7.95 76.64 8.12 77.05 8.46C77.46 8.80 77.73 9.23 77.84 9.76ZM81.47 13.30L81.47 2.80L80.49 2.80L80.49 13.30ZM84.46 12.42C84.21 12.26 84.03 11.98 83.93 11.58L82.89 11.58C83.11 12.85 83.93 13.48 85.36 13.48C85.69 13.48 86.00 13.44 86.29 13.36C86.58 13.28 86.84 13.17 87.08 13.01C87.55 12.69 87.79 12.20 87.79 11.54C87.79 10.88 87.47 10.39 86.84 10.09C86.57 9.96 86.27 9.86 85.96 9.79C85.65 9.72 85.35 9.64 85.08 9.56C84.81 9.47 84.58 9.37 84.40 9.24C84.22 9.11 84.12 8.91 84.12 8.63C84.12 8.35 84.24 8.15 84.46 8.01C84.68 7.88 84.94 7.81 85.25 7.81C85.55 7.81 85.81 7.87 86.02 7.98C86.24 8.09 86.40 8.32 86.50 8.67L87.55 8.67C87.42 8.04 87.16 7.61 86.76 7.37C86.36 7.12 85.87 7.00 85.27 7.00C84.68 7.00 84.16 7.16 83.73 7.47C83.30 7.79 83.09 8.25 83.09 8.86C83.09 9.17 83.17 9.43 83.32 9.66C83.48 9.88 83.72 10.07 84.04 10.22C84.31 10.34 84.61 10.44 84.92 10.52C85.23 10.59 85.52 10.68 85.79 10.76C86.43 10.97 86.76 11.27 86.76 11.66C86.76 12.33 86.31 12.67 85.41 12.67C85.02 12.67 84.71 12.59 84.46 12.42ZM97.01 13.27L97.99 13.27L97.99 9.42C97.99 8.73 97.82 8.16 97.48 7.71C97.30 7.49 97.09 7.31 96.82 7.18C96.56 7.04 96.22 6.97 95.79 6.97C95.36 6.97 94.98 7.09 94.66 7.32C94.37 7.53 94.13 7.81 93.94 8.14C93.87 7.99 93.78 7.85 93.68 7.71C93.51 7.49 93.29 7.31 93.03 7.18C92.77 7.04 92.42 6.97 91.99 6.97C91.56 6.97 91.19 7.09 90.87 7.32C90.59 7.52 90.36 7.78 90.17 8.09L90.17 7.11L89.19 7.11L89.19 13.27L90.17 13.27L90.17 10.12C90.23 9.62 90.35 9.20 90.55 8.85C90.70 8.59 90.90 8.37 91.15 8.20C91.41 8.04 91.68 7.95 91.97 7.95C92.26 7.95 92.47 8.00 92.61 8.08C93.01 8.34 93.21 8.78 93.21 9.42L93.21 13.27L94.19 13.27L94.19 9.42C94.19 9.34 94.19 9.26 94.19 9.19C94.23 9.07 94.29 8.95 94.35 8.85C94.50 8.59 94.70 8.37 94.95 8.20C95.20 8.04 95.47 7.95 95.76 7.95C96.05 7.95 96.26 8.00 96.40 8.08C96.81 8.34 97.01 8.78 97.01 9.42ZM104.78 10.22C104.78 10.82 104.57 11.34 104.15 11.79C103.74 12.24 103.22 12.46 102.61 12.46C101.99 12.46 101.48 12.24 101.06 11.79C100.64 11.34 100.44 10.82 100.44 10.22C100.44 9.62 100.64 9.10 101.06 8.65C101.48 8.20 101.99 7.98 102.61 7.98C103.22 7.98 103.74 8.20 104.15 8.65C104.57 9.10 104.78 9.62 104.78 10.22ZM105.76 13.30L105.76 7.14L104.78 7.14L104.78 8.19C104.72 8.12 104.66 8.05 104.60 7.98C104.02 7.33 103.30 7.00 102.45 7.00C101.60 7.00 100.88 7.33 100.30 7.98C99.74 8.61 99.46 9.36 99.46 10.22C99.46 11.08 99.74 11.83 100.30 12.46C100.88 13.11 101.60 13.44 102.45 13.44C103.30 13.44 104.02 13.11 104.60 12.46C104.66 12.39 104.72 12.32 104.78 12.25L104.78 13.30ZM112.11 13.30L113.09 13.30L113.09 9.45C113.09 8.74 112.91 8.16 112.53 7.72C112.35 7.50 112.12 7.33 111.85 7.20C111.58 7.08 111.22 7.01 110.78 7.01C110.34 7.01 109.96 7.13 109.62 7.36C109.30 7.57 109.04 7.85 108.84 8.20L108.84 7.14L107.86 7.14L107.86 13.30L108.84 13.30L108.84 10.72C108.84 9.94 108.98 9.32 109.28 8.86C109.44 8.60 109.65 8.39 109.91 8.23C110.18 8.07 110.52 7.99 110.94 7.99C111.36 7.99 111.66 8.14 111.84 8.42C112.02 8.71 112.11 9.05 112.11 9.45Z"></path></g><!----><g data-v-423bf9ae="" id="4b9fab22-84ab-4273-af71-ba3917e1eab2" transform="matrix(2.8125,0,0,2.8125,0,0)" stroke="none" fill="black"><path d="M9.382 8.675h13.943v13.943L32 31.293V0H.707zM22.618 23.325H8.675V9.382L0 .707V32h31.293z"></path></g><!----></svg>